<svg id="Layer_1" data-name="Layer 1" xmlns="http://www.w3.org/2000/svg" xmlns:xlink="http://www.w3.org/1999/xlink" viewBox="0 0 183 183"><defs><style>.cls-1{fill:url(#linear-gradient);}.cls-2{fill:#fff;fill-rule:evenodd;}</style><linearGradient id="linear-gradient" x1="24.06" y1="158.94" x2="149.98" y2="33.02" gradientUnits="userSpaceOnUse"><stop offset="0" stop-color="#45ccff"/><stop offset="0.06" stop-color="#41b7f5"/><stop offset="0.21" stop-color="#3782dc"/><stop offset="0.34" stop-color="#305bc9"/><stop offset="0.45" stop-color="#2c43be"/><stop offset="0.51" stop-color="#2a3aba"/><stop offset="0.59" stop-color="#3539be"/><stop offset="0.74" stop-color="#5337c7"/><stop offset="0.92" stop-color="#8334d6"/><stop offset="1" stop-color="#93d"/></linearGradient></defs><title>icone</title><circle class="cls-1" cx="91.5" cy="91.5" r="91.5"/><path class="cls-2" d="M92.71,146.93c-11.09,0-16.24-1.61-25.2-8.09-5.66,7.28-23.61,13-24.39,3.24,0-7.31-1.62-13.49-3.45-20.24-2.19-8.31-4.67-17.56-4.67-31,0-32,26.28-56.13,57.42-56.13S148,60,148,91.16a55.58,55.58,0,0,1-55.29,55.77m.46-84.5c-15.16-.78-27,9.71-29.6,26.17-2.15,13.63,1.68,30.22,4.94,31.08,1.57.38,5.51-2.8,8-5.26a28.08,28.08,0,0,0,13.71,4.89,28.47,28.47,0,1,0,3-56.86Z"/></svg>