<svg id="Layer_1" data-name="Layer 1" xmlns="http://www.w3.org/2000/svg" xmlns:xlink="http://www.w3.org/1999/xlink" viewBox="0 0 183 183"><defs><style>.cls-1{fill:url(#linear-gradient);}.cls-2{fill:#fdfdfd;}.cls-3{fill:#c6d8e8;}.cls-4{fill:#a6c4d6;}</style><linearGradient id="linear-gradient" x1="91.5" y1="162.12" x2="91.5" y2="62.37" gradientUnits="userSpaceOnUse"><stop offset="0" stop-color="#1e93d1"/><stop offset="1" stop-color="#38abdf"/></linearGradient></defs><title>icone</title><circle class="cls-1" cx="91.5" cy="91.5" r="91.5"/><path class="cls-2" d="M137.44,57,135.1,69.18Q133.35,77.1,131.6,85q-2.32,9.54-4.64,19.1c-.47,2-.89,3.93-1.33,5.9-1.27,4.81-2.51,9.62-3.49,14.5-.46,1.73-.93,3.45-1.38,5.18-1.25,4.82-5.21,6.23-9.12,3.1-6.5-5.2-13.33-9.94-20.17-14.69-2.5-.8-4.4-2.61-6.54-4-2.9-1.91-5.73-3.93-8.64-5.84A4.87,4.87,0,0,1,75,107.2c-.79-1.2-.09-2,.75-2.77,3.58-3.08,7-6.34,10.54-9.46q4.68-4.12,9.23-8.39c6-5.64,12.16-11.2,17.92-17.14a44.24,44.24,0,0,0,3.37-4,47.16,47.16,0,0,0-5.59,3c-14.63,9-29.14,18.11-43.68,27.22-1.67,1-3.32,2.13-5,3.17-.66.41-1.31,1-2.16.4q-11.13-3.66-22.27-7.3a9.68,9.68,0,0,1-2.41-1.14c-1.31-2.27-.9-3.74,1.61-5a132.47,132.47,0,0,1,12.54-5.28c8.34-3.24,16.7-6.43,25.06-9.63,6.11-2.23,12.22-4.43,18.33-6.68,5.26-1.93,10.51-3.9,15.76-5.85,6.74-2.41,13.47-4.83,20.21-7.21a22.88,22.88,0,0,1,4-1.27c3.27-.54,4.84.87,4.41,4.16A17.91,17.91,0,0,0,137.44,57Z"/><path class="cls-3" d="M60.41,99.23c1.76-.09,2.94-1.37,4.28-2.22,15.39-9.79,30.89-19.4,46.41-29a46,46,0,0,1,6.71-3.69c-.47,1.92-1.77,2.92-2.78,4-6.61,6.89-13.59,13.42-20.69,19.8-4.26,3.83-8.43,7.74-12.66,11.6-2,1.77-3.93,3.51-5.92,5.25-.65.57-1.07,1.16-.5,2-.59,7.87-1.62,15.69-2.09,23.57a1.26,1.26,0,0,1-.26.77c-1.64-1.21-1.9-3.18-2.67-4.87a13.53,13.53,0,0,0-1-2.6c-1.54-4.79-3.27-9.5-5.1-14.18Q62.27,104.46,60.41,99.23Z"/><path class="cls-4" d="M72.91,131.34c-.72-2,0-4.08.11-6.11.12-3.1.61-6.19.9-9.28.26-2.77.47-5.54.7-8.31a.64.64,0,0,1,.64-.64l16.21,11.12c-1.85.31-2.83,1.89-4.08,3-3.44,3-6.73,6.2-10.06,9.34a7.16,7.16,0,0,1-2.4,1.49A1.45,1.45,0,0,1,72.91,131.34Z"/></svg>