<svg id="Layer_1" data-name="Layer 1" xmlns="http://www.w3.org/2000/svg" viewBox="0 0 183.85 183.85"><defs><style>.cls-1{fill:#00d954;}.cls-2,.cls-3{fill:#fff;}.cls-3{fill-rule:evenodd;}</style></defs><title>icone</title><circle class="cls-1" cx="91.93" cy="91.93" r="91.93" transform="translate(-13.42 168.11) rotate(-80.87)"/><path class="cls-2" d="M42.26,144l7.67-28.6A52.86,52.86,0,1,1,71,136.25Zm30.17-18.42,1.81,1.08A43,43,0,1,0,59.55,112l1.11,1.83-4.28,16Z"/><path class="cls-3" d="M115.75,97.19c-2.18-1.3-5-2.76-7.57-1.71-2,.81-3.21,3.88-4.49,5.45a1.88,1.88,0,0,1-2.43.53A34.21,34.21,0,0,1,84.17,86.82,2.1,2.1,0,0,1,84.43,84c1.23-1.44,2.77-3.09,3.11-5s-.59-4.23-1.39-6c-1-2.22-2.18-5.39-4.41-6.64-2-1.16-4.73-.51-6.55,1a13.31,13.31,0,0,0-4.62,10.54A15.67,15.67,0,0,0,71,81.17a27.77,27.77,0,0,0,3.21,7.4,58.74,58.74,0,0,0,3.35,5.09,51.63,51.63,0,0,0,14.53,13.49,43.74,43.74,0,0,0,9.06,4.31c3.55,1.18,6.72,2.4,10.55,1.67,4-.76,8-3.25,9.57-7.12a6.22,6.22,0,0,0,.44-3.63C121.16,99.88,117.77,98.4,115.75,97.19Z"/></svg>